<svg width="24" height="24" viewBox="0 0 24 24" fill="none" xmlns="http://www.w3.org/2000/svg">
<path d="M20.2933 13.5742C21.5485 14.2161 22.2051 17.8717 17.0877 18.1758V19.8989C17.0877 19.9436 17.0532 19.9799 17.0105 19.9799H15.3228C15.2922 19.9799 15.2645 19.9611 15.2521 19.9317L14.0559 17.1014C13.5088 17.2501 12.2639 17.2555 11.6614 16.0879C10.3869 17.3244 7.76062 16.8691 7.66406 14.6946" stroke="black" stroke-width="1.5" stroke-linecap="round" stroke-linejoin="round"/>
<path d="M3.2023 9.52148C1.95096 11.3864 2.43984 13.67 4.12922 14.6961C5.25214 15.3782 6.84219 15.2804 7.6631 14.6961C8.20256 14.3122 8.59375 13.7516 8.7881 13.1823" stroke="black" stroke-width="1.5" stroke-linecap="round" stroke-linejoin="round"/>
<path d="M6.98633 5.54542C7.9742 4.96348 9.86262 3.80277 12.2947 4.05747" stroke="black" stroke-width="1.5" stroke-linecap="round" stroke-linejoin="round"/>
<path d="M5.27689 11.3818C1.37613 10.3885 4.041 3.6584 8.73353 6.09095" stroke="black" stroke-width="1.5" stroke-linecap="round" stroke-linejoin="round"/>
<path d="M16.1303 9.60897C17.4091 10.8868 19.4807 10.8868 20.7594 9.60897C22.0372 8.33118 22.0372 6.25859 20.7594 4.97982C19.4807 3.70204 17.4091 3.70204 16.1303 4.97982C14.8525 6.25859 14.8525 8.33118 16.1303 9.60897ZM16.1303 9.60897L14.3573 11.3824" stroke="black" stroke-width="1.5" stroke-linecap="round" stroke-linejoin="round"/>
<path d="M7.35059 9.11328C7.60174 9.52457 8.42782 9.75481 9.16264 9.54711" stroke="black" stroke-width="1.5" stroke-linecap="round" stroke-linejoin="round"/>
</svg>
