<svg width="40" height="40" viewBox="0 0 40 40" fill="none" xmlns="http://www.w3.org/2000/svg">
<path fill-rule="evenodd" clip-rule="evenodd" d="M6.10171 22.4897C4.72831 21.1162 4.72831 18.889 6.10171 17.5157C7.47512 16.1406 9.70227 16.1406 11.0773 17.5157C12.4507 18.889 12.4507 21.1162 11.0773 22.4897C9.70227 23.863 7.47512 23.863 6.10171 22.4897Z" stroke="#4B4742" stroke-width="2" stroke-linecap="round" stroke-linejoin="round"/>
<path fill-rule="evenodd" clip-rule="evenodd" d="M28.924 22.4897C27.5505 21.1162 27.5505 18.889 28.924 17.5157C30.2974 16.1406 32.5245 16.1406 33.8979 17.5157C35.273 18.889 35.273 21.1162 33.8979 22.4897C32.5245 23.863 30.2974 23.863 28.924 22.4897Z" stroke="#4B4742" stroke-width="2" stroke-linecap="round" stroke-linejoin="round"/>
<path fill-rule="evenodd" clip-rule="evenodd" d="M23.6123 26.2812C21.6177 24.2865 18.3833 24.2865 16.3886 26.2812C14.3939 28.276 14.3939 31.5102 16.3886 33.505C18.3833 35.4997 21.6177 35.4997 23.6123 33.505C25.6072 31.5102 25.6072 28.276 23.6123 26.2812Z" stroke="#4B4742" stroke-width="2" stroke-linecap="round" stroke-linejoin="round"/>
<path fill-rule="evenodd" clip-rule="evenodd" d="M16.3886 13.7198C18.3833 15.7145 21.6177 15.7145 23.6123 13.7198C25.6072 11.725 25.6072 8.49081 23.6123 6.49606C21.6177 4.50131 18.3833 4.50131 16.3886 6.49606C14.3939 8.49081 14.3939 11.725 16.3886 13.7198Z" stroke="#4B4742" stroke-width="2" stroke-linecap="round" stroke-linejoin="round"/>
</svg>
