<svg width="32" height="32" viewBox="0 0 32 32" fill="none" xmlns="http://www.w3.org/2000/svg">
<path d="M28.8363 16.177C28.8349 16.8445 28.8089 17.4524 28.7201 18.1165C28.3428 20.9058 27.0567 23.493 25.0599 25.4768C19.8625 30.5144 11.9113 30.5389 6.78844 25.385C4.73355 23.2944 3.46044 20.5601 3.18297 17.6418C3.11858 16.9448 3.12474 16.2704 3.12438 15.5725L3.12633 13.1926H28.8373L28.8363 16.177ZM6.20837 15.8918C5.84032 15.8918 5.54158 16.1908 5.54137 16.5588V16.5803C5.5414 16.9439 5.83308 17.2407 6.19665 17.2444C7.62323 17.2587 9.08348 17.2416 10.5013 17.2415H12.4476C12.7505 17.2415 13.1701 17.2539 13.4623 17.2366L9.19665 19.6946C8.67361 19.9959 8.11656 20.3289 7.57262 20.6389C7.25099 20.8222 7.1346 21.2324 7.31969 21.553C7.5057 21.8751 7.9222 21.9787 8.24352 21.7913C8.64654 21.5562 9.06272 21.3252 9.45641 21.0989L12.4916 19.3518C12.9502 19.0875 13.7027 18.6834 14.1263 18.4055C13.8451 18.9685 13.3267 19.8036 13.0004 20.3704L10.7308 24.2971C10.5469 24.6154 10.6551 25.0227 10.973 25.2073L10.9877 25.2161C11.3065 25.401 11.7153 25.2921 11.8998 24.9729L14.0062 21.3264C14.4295 20.5951 14.9015 19.8128 15.3041 19.0764C15.2896 21.3479 15.2889 23.6203 15.3021 25.8918C15.3045 26.2577 15.6022 26.5525 15.9681 26.553H15.9896C16.358 26.5534 16.6571 26.2553 16.6566 25.887C16.6522 23.6259 16.6321 21.3275 16.6615 19.0793C16.9454 19.5862 17.2338 20.0908 17.5277 20.592L20.0638 24.9739C20.2486 25.293 20.6573 25.4015 20.9759 25.2161L20.9886 25.2083C21.3058 25.0234 21.4143 24.617 21.2308 24.2991L17.8275 18.4016L22.5746 21.1379C22.9522 21.3558 23.3414 21.5863 23.7279 21.8088C24.0477 21.9927 24.4568 21.8755 24.6429 21.5569C24.6488 21.5468 24.6546 21.5367 24.6605 21.5266C24.8407 21.2176 24.7293 20.8272 24.4193 20.6487L20.6732 18.4905L19.2748 17.6858C19.0293 17.5445 18.7284 17.3601 18.4779 17.2366C19.0324 17.2549 19.6185 17.248 20.1752 17.2415C22.0339 17.2193 23.9055 17.264 25.766 17.2483C26.1293 17.245 26.4208 16.9485 26.4213 16.5852V16.5618C26.4217 16.1933 26.1227 15.8938 25.7543 15.8938L6.20837 15.8918Z" fill="#001332"/>
<path d="M15.6261 3.04373C17.8281 2.84855 19.7726 4.47277 19.9726 6.67438C20.1727 8.876 18.5528 10.824 16.3516 11.0289C14.1436 11.2343 12.1882 9.60825 11.9876 7.39981C11.7869 5.19135 13.4173 3.23952 15.6261 3.04373Z" fill="#001332"/>
</svg>
