<svg width="24" height="24" viewBox="0 0 24 24" fill="none" xmlns="http://www.w3.org/2000/svg">
<path d="M6.99643 9.2041H10.061M6.97217 11.6881H8.51644" stroke="black" stroke-width="1.5" stroke-linecap="round" stroke-linejoin="round"/>
<path d="M17.3847 15.587H14.29M17.4092 13.0786H15.8498" stroke="black" stroke-width="1.5" stroke-linecap="round" stroke-linejoin="round"/>
<path d="M11.1616 16.2188H8.3314C5.38698 16.2188 3.00006 13.8177 3.00006 10.8558C3.00006 7.894 5.38698 5.49295 8.3314 5.49295H9.13405V3.1604C9.13405 3.1604 13.7401 4.62593 15.7985 7.62614C16.3612 8.37539 16.7329 9.27789 16.8408 10.2604" stroke="black" stroke-width="1.5" stroke-linecap="round" stroke-linejoin="round"/>
<path d="M10.6997 14.3166C10.6997 12.1176 12.4719 10.335 14.6579 10.335H17.0416C19.2277 10.335 20.9999 12.1176 20.9999 14.3166C20.9999 16.5157 19.2277 18.2983 17.0416 18.2983H16.4457V20.0301C16.4457 20.0301 13.026 18.942 11.4977 16.7145C10.9968 16.0475 10.6997 15.217 10.6997 14.3166Z" stroke="black" stroke-width="1.5" stroke-linecap="round" stroke-linejoin="round"/>
</svg>
